<mxfile host="app.diagrams.net" modified="2023-09-21T05:01:06.379Z" agent="Mozilla/5.0 (Windows NT 10.0; Win64; x64) AppleWebKit/537.36 (KHTML, like Gecko) Chrome/116.0.0.0 Safari/537.36" version="21.8.0" etag="xpn-1lINtY0EeafHl30F" type="github">
  <diagram name="Trang-1" id="J1XkSQ0qmJ4ChqnoxswA">
    <mxGraphModel>
      <root>
        <mxCell id="0" />
        <mxCell id="1" parent="0" />
      </root>
    </mxGraphModel>
  </diagram>
</mxfile>
